<?xml version="1.0" encoding="utf-8"?>
<!-- Generator: Adobe Illustrator 16.0.0, SVG Export Plug-In . SVG Version: 6.00 Build 0)  -->
<!DOCTYPE svg PUBLIC "-//W3C//DTD SVG 1.1//EN" "http://www.w3.org/Graphics/SVG/1.1/DTD/svg11.dtd">
<svg version="1.1" id="Layer_1" xmlns="http://www.w3.org/2000/svg" xmlns:xlink="http://www.w3.org/1999/xlink" x="0px" y="0px"
	 width="512px" height="512px" viewBox="0 0 512 512" enable-background="new 0 0 512 512" xml:space="preserve">
<g>
	<path fill="#E18728" d="M256,73.483C155.36,73.483,73.483,155.36,73.483,256c0,100.641,81.877,182.517,182.517,182.517
		c100.64,0,182.517-81.876,182.517-182.517C438.517,155.36,356.64,73.483,256,73.483z M268.5,413.021v-17.224
		c0-6.903-5.598-12.5-12.5-12.5c-6.903,0-12.5,5.597-12.5,12.5v17.224c-76.908-6.067-138.454-67.613-144.521-144.521h17.223
		c6.903,0,12.5-5.598,12.5-12.5c0-6.903-5.597-12.5-12.5-12.5H98.979c6.067-76.908,67.613-138.454,144.521-144.521v17.223
		c0,6.903,5.597,12.5,12.5,12.5c6.902,0,12.5-5.597,12.5-12.5V98.979c76.908,6.067,138.454,67.613,144.521,144.521h-17.224
		c-6.903,0-12.5,5.597-12.5,12.5c0,6.902,5.597,12.5,12.5,12.5h17.224C406.954,345.408,345.408,406.954,268.5,413.021z"/>
	<path fill="#E18728" d="M291.236,261.141c1.555-10.749-1.795-22.077-10.047-30.331c-6.729-6.729-15.674-10.434-25.189-10.434
		c-1.743,0-3.467,0.127-5.161,0.372l-53.493-40.926c-4.979-3.809-12.005-3.341-16.435,1.089c-4.431,4.431-4.896,11.457-1.089,16.435
		l40.941,53.514c-1.555,10.75,1.794,22.078,10.047,30.332c6.729,6.729,15.674,10.434,25.189,10.434c1.743,0,3.467-0.127,5.161-0.372
		l53.493,40.926c2.255,1.726,4.929,2.572,7.592,2.572c3.218,0,6.419-1.237,8.843-3.661c4.431-4.431,4.896-11.457,1.089-16.436
		L291.236,261.141z"/>
</g>
</svg>
