<?xml version="1.0" encoding="utf-8"?>
<!-- Generator: Adobe Illustrator 16.0.0, SVG Export Plug-In . SVG Version: 6.00 Build 0)  -->
<!DOCTYPE svg PUBLIC "-//W3C//DTD SVG 1.1//EN" "http://www.w3.org/Graphics/SVG/1.1/DTD/svg11.dtd">
<svg version="1.1" id="Layer_1" xmlns="http://www.w3.org/2000/svg" xmlns:xlink="http://www.w3.org/1999/xlink" x="0px" y="0px"
	 width="30px" height="30px" viewBox="0 0 30 30" enable-background="new 0 0 30 30" xml:space="preserve">
<path fill="#E08728" d="M8.39,4.472c0,1.503-1.11,2.721-2.936,2.721c-1.718,0-2.829-1.218-2.829-2.721
	c0-1.539,1.147-2.722,2.9-2.722C7.279,1.75,8.354,2.933,8.39,4.472z M2.769,26.853V9.342h5.443v17.51H2.769z M11.469,14.928
	c0-2.185-0.072-4.01-0.144-5.586h4.726l0.252,2.436h0.107c0.716-1.147,2.471-2.829,5.408-2.829c3.579,0,6.265,2.399,6.265,7.555
	v10.349h-5.442v-9.703c0-2.255-0.789-3.796-2.758-3.796c-1.504,0-2.396,1.039-2.791,2.042c-0.145,0.357-0.181,0.858-0.181,1.361
	v10.097h-5.442V14.928z"/>
</svg>
