<?xml version="1.0" encoding="utf-8"?>
<!-- Generator: Adobe Illustrator 15.0.0, SVG Export Plug-In . SVG Version: 6.00 Build 0)  -->
<!DOCTYPE svg PUBLIC "-//W3C//DTD SVG 1.1//EN" "http://www.w3.org/Graphics/SVG/1.1/DTD/svg11.dtd">
<svg version="1.1" id="Layer_1" xmlns="http://www.w3.org/2000/svg" xmlns:xlink="http://www.w3.org/1999/xlink" x="0px" y="0px"
	 width="512px" height="512px" viewBox="0 0 512 512" enable-background="new 0 0 512 512" xml:space="preserve">
<g opacity="0.5">
	<g>
		<path fill="#FFFFFF" d="M256,448.5c-9.209,0-18.442-6.438-35.991-38.477c-10.677-19.494-23.208-46.455-35.287-75.92
			c-21.741-53.035-44.972-121.437-44.972-154.354c0-64.101,52.148-116.25,116.25-116.25c64.101,0,116.25,52.149,116.25,116.25
			c0,32.919-23.231,101.319-44.973,154.354c-12.078,29.465-24.609,56.427-35.286,75.92C274.441,442.062,265.209,448.5,256,448.5z
			 M256,88.5c-50.315,0-91.25,40.936-91.25,91.25c0,22.752,15.666,76.525,39.909,136.992c10.955,27.324,22.62,53.232,32.848,72.953
			c9.113,17.571,15.069,26.397,18.493,30.729c3.424-4.332,9.38-13.158,18.493-30.729c10.227-19.721,21.892-45.629,32.848-72.953
			c24.244-60.467,39.909-114.24,39.909-136.992C347.25,129.435,306.315,88.5,256,88.5z"/>
	</g>
	<g>
		<path fill="#FFFFFF" d="M256,221.964c-26.191,0-47.5-21.309-47.5-47.5c0-26.19,21.309-47.5,47.5-47.5
			c26.19,0,47.5,21.31,47.5,47.5C303.5,200.655,282.191,221.964,256,221.964z M256,151.964c-12.407,0-22.5,10.095-22.5,22.5
			c0,12.406,10.093,22.5,22.5,22.5c12.406,0,22.5-10.094,22.5-22.5C278.5,162.058,268.407,151.964,256,151.964z"/>
	</g>
</g>
</svg>
