<?xml version="1.0" encoding="utf-8"?>
<!-- Generator: Adobe Illustrator 16.0.0, SVG Export Plug-In . SVG Version: 6.00 Build 0)  -->
<!DOCTYPE svg PUBLIC "-//W3C//DTD SVG 1.1//EN" "http://www.w3.org/Graphics/SVG/1.1/DTD/svg11.dtd">
<svg version="1.1" id="Layer_1" xmlns="http://www.w3.org/2000/svg" xmlns:xlink="http://www.w3.org/1999/xlink" x="0px" y="0px"
	 width="512px" height="512px" viewBox="0 0 512 512" enable-background="new 0 0 512 512" xml:space="preserve">
<g>
	<path fill="#f8f8f8" d="M408.918,280.336c1.271-8.036,1.913-16.191,1.913-24.336c0-8.145-0.642-16.301-1.913-24.337
		c7.503-6.647,12.858-15.384,15.386-25.289c3.278-12.85,1.432-26.251-5.2-37.738l-5.893-10.206
		c-8.997-15.582-25.773-25.262-43.783-25.262c-5.396,0-10.774,0.881-15.892,2.581c-12.739-10.362-26.866-18.529-42.158-24.371
		c-2.008-9.815-6.896-18.814-14.207-25.95c-9.487-9.261-22.017-14.362-35.278-14.362h-11.785c-13.262,0-25.791,5.101-35.279,14.362
		c-7.311,7.136-12.2,16.135-14.208,25.949c-15.292,5.843-29.419,14.01-42.158,24.372c-5.118-1.7-10.495-2.581-15.893-2.581
		c-18.009,0-34.786,9.68-43.783,25.262l-5.891,10.205c-6.632,11.486-8.479,24.888-5.201,37.738
		c2.527,9.905,7.882,18.643,15.385,25.29c-1.271,8.036-1.913,16.191-1.913,24.336c0,8.146,0.642,16.3,1.913,24.336
		c-7.503,6.647-12.858,15.384-15.386,25.29c-3.278,12.85-1.431,26.251,5.2,37.738l5.893,10.205
		c8.996,15.582,25.773,25.262,43.783,25.262c5.397,0,10.774-0.88,15.892-2.581c12.739,10.362,26.866,18.528,42.158,24.372
		c2.008,9.814,6.896,18.812,14.207,25.949c9.488,9.261,22.017,14.361,35.278,14.361l0,0h11.786c13.262,0,25.79-5.101,35.278-14.361
		c7.312-7.137,12.199-16.135,14.207-25.949c15.292-5.843,29.419-14.01,42.158-24.372c5.117,1.7,10.495,2.581,15.892,2.581
		c0.001,0,0,0,0.001,0c18.008,0,34.785-9.68,43.782-25.262l5.891-10.205c6.633-11.486,8.479-24.889,5.201-37.738
		C421.776,295.72,416.421,286.982,408.918,280.336z M382.992,228.903c1.883,8.874,2.838,17.991,2.838,27.097
		c0,9.105-0.955,18.222-2.838,27.096c-1.1,5.18,1.183,10.488,5.697,13.254c11.884,7.281,15.732,22.441,8.763,34.515l-5.892,10.204
		c-4.545,7.873-13.024,12.762-22.131,12.762c-4.221,0-8.424-1.073-12.156-3.104c-4.658-2.533-10.407-1.853-14.345,1.7
		c-13.674,12.336-29.448,21.454-46.883,27.103c-5.041,1.632-8.505,6.266-8.644,11.562c-0.367,13.93-11.571,24.841-25.508,24.841
		h-11.786c-13.937,0-25.141-10.911-25.508-24.841c-0.14-5.297-3.603-9.93-8.644-11.562c-17.436-5.647-33.209-14.767-46.884-27.103
		c-2.353-2.12-5.349-3.219-8.375-3.219c-2.04,0-4.093,0.499-5.969,1.521c-3.785,2.059-7.875,3.103-12.155,3.103
		c-9.107,0-17.587-4.89-22.132-12.763l-5.893-10.205c-6.969-12.072-3.12-27.232,8.764-34.514c4.514-2.767,6.796-8.076,5.697-13.254
		c-1.883-8.873-2.838-17.99-2.838-27.096c0-9.105,0.955-18.222,2.838-27.096c1.099-5.178-1.183-10.487-5.696-13.253
		c-11.884-7.282-15.733-22.442-8.763-34.515l5.891-10.205c4.545-7.872,13.025-12.762,22.132-12.762c4.22,0,8.424,1.073,12.156,3.103
		c4.658,2.534,10.408,1.853,14.345-1.699c13.675-12.336,29.449-21.454,46.884-27.103c5.041-1.632,8.504-6.266,8.644-11.562
		c0.367-13.93,11.572-24.841,25.509-24.841h11.784c13.937,0,25.141,10.912,25.508,24.841c0.139,5.296,3.603,9.93,8.644,11.562
		c17.437,5.647,33.209,14.766,46.884,27.103c3.938,3.551,9.688,4.231,14.346,1.699c3.785-2.059,7.874-3.103,12.154-3.103
		c9.106,0,17.588,4.891,22.133,12.763l5.893,10.205c6.969,12.072,3.12,27.232-8.764,34.514
		C384.175,218.416,381.893,223.725,382.992,228.903z"/>
	<path fill="#f8f8f8" d="M256,146.005c-60.651,0-109.995,49.344-109.995,109.995c0,60.65,49.344,109.995,109.995,109.995
		c60.651,0,109.995-49.345,109.995-109.995C365.995,195.349,316.651,146.005,256,146.005z M256,340.995
		c-46.866,0-84.995-38.129-84.995-84.995s38.129-84.995,84.995-84.995s84.995,38.129,84.995,84.995S302.866,340.995,256,340.995z"/>
</g>
</svg>
