<?xml version="1.0" encoding="utf-8"?>
<!-- Generator: Adobe Illustrator 15.0.0, SVG Export Plug-In . SVG Version: 6.00 Build 0)  -->
<!DOCTYPE svg PUBLIC "-//W3C//DTD SVG 1.1//EN" "http://www.w3.org/Graphics/SVG/1.1/DTD/svg11.dtd">
<svg version="1.1" id="Layer_1" xmlns="http://www.w3.org/2000/svg" xmlns:xlink="http://www.w3.org/1999/xlink" x="0px" y="0px"
	 width="512px" height="512px" viewBox="0 0 512 512" enable-background="new 0 0 512 512" xml:space="preserve">
<g id="_x33_LAVVq.tif" opacity="0.5">
	<g>
		<path fill="#FFFFFF" d="M219.248,66.218c0.85,0,1.7,0,2.55,0c2.975,0.275,6.036,1.123,8.591,2.125
			c2.58,1.016,4.901,2.176,7.144,3.489c1.976,1.155,4.145,2.636,6.123,4.506c1.578,1.492,3.911,3.946,4.166,6.461
			c0.154,1.527,0.086,3.12,0.086,4.68c0,1.565,0.084,3.152,0.084,4.675c0,3.157-0.035,6.323,0.083,9.525
			c0.231,6.132,0.099,12.421,0.341,18.88c0.117,3.131,0.086,6.352,0.086,9.525c-0.002,9.371,0.422,19.608,0.426,28.66
			c-3.268,3.68-5.962,7.885-10.462,10.971c-2.06,1.41-4.28,2.601-6.973,3.741c-2.363,0.999-5.527,2.394-8.676,1.871
			c-2.297-0.381-2.391-2.003-2.636-4.337c-0.337-3.236-0.447-6.632-0.595-9.78c-0.626-13.25-0.956-26.768-1.275-40.14
			c-0.442-18.475-0.575-36.589-0.85-54.428c0.005-0.051,0.011-0.1,0.084-0.083C218.022,66.353,218.725,66.377,219.248,66.218z"/>
		<path fill="#FFFFFF" d="M328.357,448.061c-7.115,0-14.23,0-21.346,0c-21.306-3.363-38.058-12.517-52.471-23.216
			c-8.636-6.413-16.914-13.343-24.491-20.925c-10.114-10.111-19.604-20.782-28.576-31.973
			c-8.991-11.224-17.475-22.927-25.596-34.952c-4.061-6.016-8.297-11.92-12.078-18.201c-3.807-6.329-7.26-12.877-10.375-19.901
			c-9.217-20.792-15.774-44.733-20.326-70.499c-4.5-25.494-7.291-53.354-7.823-83.002c0-2.125,0-4.252,0-6.377
			c0.836-24.716,10.658-41.144,24.833-52.643c6.996-5.674,15.608-10.312,25.173-13.521c9.659-3.244,20.444-5.917,32.401-6.209
			c1.193,36.765,2.148,73.767,3.315,110.555c-9.086,4.405-16.304,10.502-19.218,20.921c-2.375,8.489-1.054,19.038,1.7,25.853
			c0.964,2.385,2.167,4.626,3.316,6.805c4.628,8.762,8.96,17.818,13.607,26.617c2.328,4.408,4.551,8.879,6.805,13.268
			c6.822,13.288,13.836,26.352,20.921,39.376c4.721,8.684,9.522,17.29,14.542,25.683c2.404,4.017,5.088,8.234,7.909,12.157
			c2.842,3.961,6.385,7.286,10.801,9.36c4.814,2.26,10.916,2.997,17.094,1.95c5.597-0.946,10.573-3.081,14.711-5.44
			c7.454,6.007,15.064,11.858,22.621,17.776c21.309,16.682,42.706,33.612,63.867,50.342c0.449,0.354,1.171,0.579,1.191,1.107
			C372.932,434.242,351.773,442.274,328.357,448.061z"/>
		<path fill="#FFFFFF" d="M408.723,389.378c0,0.683,0,1.364,0,2.047c-2.207,9.073-5.315,17.246-7.91,25.934
			c-15.069-11.872-30.181-23.829-45.24-35.804c-11.31-8.984-22.568-18.097-33.851-26.957c-3.545-2.783-7.291-5.566-10.628-8.42
			c-0.168-0.146-0.629-0.239-0.51-0.594c7.417-3.877,14.756-7.771,22.195-11.652c0.587-0.303,1.124-0.775,1.701-0.934
			c1.444-0.397,3.273-0.076,4.848,0.257c5.518,1.157,9.787,4.277,13.775,7.142c4.17,2.993,8.003,6.005,11.907,9.013
			c7.715,5.944,15.771,12.129,23.556,18.284c3.824,3.022,7.846,6.165,11.735,9.188C404.235,379.934,407.917,383.652,408.723,389.378
			z"/>
	</g>
</g>
</svg>
